<svg width="50" height="50" viewBox="0 0 50 50" fill="none" xmlns="http://www.w3.org/2000/svg">
<path d="M23.4735 0C21.6295 1.71818 20.1504 3.79016 19.1246 6.09233C18.0988 8.3945 17.5472 10.8797 17.5027 13.3997C17.4582 15.9196 17.9218 18.4227 18.8658 20.7597C19.8098 23.0966 21.2148 25.2194 22.997 27.0016C24.7793 28.7838 26.9023 30.1887 29.2393 31.1326C31.5763 32.0766 34.0796 32.5401 36.5997 32.4957C39.1198 32.4512 41.6051 31.8996 43.9074 30.8739C46.2096 29.8481 48.2817 28.3691 50 26.5252C49.2042 39.6251 38.3283 50 25.0275 50C11.2037 50 0 38.7969 0 24.9762C0 11.6761 10.3754 0.800761 23.4735 0Z" fill="#1C72DC"/>
</svg>
