<svg width="50" height="50" viewBox="0 0 50 50" fill="none" xmlns="http://www.w3.org/2000/svg">
<path d="M22.2222 3.7037V2.77778C22.2222 2.04107 22.5149 1.33453 23.0358 0.813592C23.5567 0.292658 24.2633 0 25 0C25.7367 0 26.4432 0.292658 26.9642 0.813592C27.4851 1.33453 27.7778 2.04107 27.7778 2.77778V3.7037C27.7778 4.44042 27.4851 5.14696 26.9642 5.66789C26.4432 6.18882 25.7367 6.48148 25 6.48148C24.2633 6.48148 23.5567 6.18882 23.0358 5.66789C22.5149 5.14696 22.2222 4.44042 22.2222 3.7037ZM40.7407 25C40.7407 28.1132 39.8176 31.1565 38.0879 33.7451C36.3583 36.3336 33.9 38.3512 31.0237 39.5425C28.1475 40.7339 24.9825 41.0456 21.9291 40.4383C18.8757 39.8309 16.071 38.3318 13.8696 36.1304C11.6682 33.929 10.1691 31.1243 9.56171 28.0709C8.95435 25.0175 9.26607 21.8525 10.4575 18.9763C11.6488 16.1 13.6664 13.6417 16.2549 11.9121C18.8435 10.1824 21.8868 9.25926 25 9.25926C29.1734 9.26355 33.1746 10.9233 36.1256 13.8744C39.0767 16.8254 40.7365 20.8266 40.7407 25ZM35.1852 25C35.1852 22.9856 34.5878 21.0164 33.4687 19.3414C32.3495 17.6665 30.7588 16.361 28.8977 15.5901C27.0366 14.8192 24.9887 14.6175 23.013 15.0105C21.0372 15.4035 19.2224 16.3736 17.798 17.798C16.3736 19.2224 15.4035 21.0372 15.0105 23.013C14.6175 24.9887 14.8192 27.0366 15.5901 28.8977C16.361 30.7588 17.6665 32.3495 19.3414 33.4687C21.0164 34.5878 22.9856 35.1852 25 35.1852C27.7003 35.1821 30.2892 34.1081 32.1986 32.1986C34.1081 30.2892 35.1821 27.7003 35.1852 25ZM7.29398 11.2245C7.55237 11.4829 7.85912 11.6879 8.19672 11.8277C8.53432 11.9676 8.89616 12.0395 9.26157 12.0395C9.62699 12.0395 9.98883 11.9676 10.3264 11.8277C10.664 11.6879 10.9708 11.4829 11.2292 11.2245C11.4876 10.9661 11.6925 10.6594 11.8324 10.3218C11.9722 9.9842 12.0442 9.62236 12.0442 9.25694C12.0442 8.89153 11.9722 8.52969 11.8324 8.19209C11.6925 7.85449 11.4876 7.54774 11.2292 7.28935L10.3032 6.36343C9.7814 5.84159 9.07364 5.54842 8.33565 5.54842C7.59766 5.54842 6.88989 5.84159 6.36806 6.36343C5.84622 6.88526 5.55305 7.59303 5.55305 8.33102C5.55305 9.06901 5.84622 9.77677 6.36806 10.2986L7.29398 11.2245ZM7.29398 38.7708L6.36806 39.6968C6.10967 39.9551 5.9047 40.2619 5.76486 40.5995C5.62503 40.9371 5.55305 41.2989 5.55305 41.6644C5.55305 42.0298 5.62503 42.3916 5.76486 42.7292C5.9047 43.0668 6.10967 43.3736 6.36806 43.6319C6.88989 44.1538 7.59766 44.4469 8.33565 44.4469C8.70106 44.4469 9.0629 44.375 9.4005 44.2351C9.7381 44.0953 10.0449 43.8903 10.3032 43.6319L11.2292 42.706C11.751 42.1842 12.0442 41.4764 12.0442 40.7384C12.0442 40.0004 11.751 39.2927 11.2292 38.7708C10.7073 38.249 9.99956 37.9558 9.26157 37.9558C8.52358 37.9558 7.81582 38.249 7.29398 38.7708ZM40.7407 12.037C41.1056 12.0373 41.467 11.9657 41.8042 11.8263C42.1414 11.6869 42.4479 11.4824 42.706 11.2245L43.6319 10.2986C44.1538 9.77677 44.4469 9.06901 44.4469 8.33102C44.4469 7.59303 44.1538 6.88526 43.6319 6.36343C43.1101 5.84159 42.4023 5.54842 41.6644 5.54842C40.9264 5.54842 40.2186 5.84159 39.6968 6.36343L38.7708 7.28935C38.38 7.67787 38.1136 8.17385 38.0055 8.7142C37.8973 9.25455 37.9524 9.81485 38.1636 10.3238C38.3748 10.8328 38.7326 11.2675 39.1915 11.5726C39.6504 11.8776 40.1897 12.0393 40.7407 12.037ZM42.706 38.7755C42.1842 38.2536 41.4764 37.9605 40.7384 37.9605C40.0004 37.9605 39.2927 38.2536 38.7708 38.7755C38.249 39.2973 37.9558 40.0051 37.9558 40.7431C37.9558 41.481 38.249 42.1888 38.7708 42.7106L39.6968 43.6366C40.2186 44.1584 40.9264 44.4516 41.6644 44.4516C42.4023 44.4516 43.1101 44.1584 43.6319 43.6366C44.1538 43.1147 44.4469 42.407 44.4469 41.669C44.4469 40.931 44.1538 40.2232 43.6319 39.7014L42.706 38.7755ZM6.48148 25C6.48148 24.2633 6.18882 23.5567 5.66789 23.0358C5.14696 22.5149 4.44042 22.2222 3.7037 22.2222H2.77778C2.04107 22.2222 1.33453 22.5149 0.813592 23.0358C0.292658 23.5567 0 24.2633 0 25C0 25.7367 0.292658 26.4432 0.813592 26.9642C1.33453 27.4851 2.04107 27.7778 2.77778 27.7778H3.7037C4.44042 27.7778 5.14696 27.4851 5.66789 26.9642C6.18882 26.4432 6.48148 25.7367 6.48148 25ZM25 43.5185C24.2633 43.5185 23.5567 43.8112 23.0358 44.3321C22.5149 44.853 22.2222 45.5596 22.2222 46.2963V47.2222C22.2222 47.9589 22.5149 48.6655 23.0358 49.1864C23.5567 49.7073 24.2633 50 25 50C25.7367 50 26.4432 49.7073 26.9642 49.1864C27.4851 48.6655 27.7778 47.9589 27.7778 47.2222V46.2963C27.7778 45.5596 27.4851 44.853 26.9642 44.3321C26.4432 43.8112 25.7367 43.5185 25 43.5185ZM47.2222 22.2222H46.2963C45.5596 22.2222 44.853 22.5149 44.3321 23.0358C43.8112 23.5567 43.5185 24.2633 43.5185 25C43.5185 25.7367 43.8112 26.4432 44.3321 26.9642C44.853 27.4851 45.5596 27.7778 46.2963 27.7778H47.2222C47.9589 27.7778 48.6655 27.4851 49.1864 26.9642C49.7073 26.4432 50 25.7367 50 25C50 24.2633 49.7073 23.5567 49.1864 23.0358C48.6655 22.5149 47.9589 22.2222 47.2222 22.2222Z" fill="#E7793C"/>
</svg>
